<svg width="84" height="42" viewBox="0 0 84 42" fill="none" xmlns="http://www.w3.org/2000/svg">
<rect width="84" height="42" fill="#E00174"/>
<rect width="41.5" height="41.5" transform="translate(0 0.25)" fill="#E20074"/>
<path d="M13.9286 25.8132H8.00001V19.8847H13.9181V25.8132H13.9286ZM8 6.25V16.3296H9.77753V16.0368C9.77753 11.2898 12.4438 8.33075 17.4836 8.33075H17.7764V29.6715C17.7764 32.6306 16.5949 33.8226 13.6253 33.8226H12.7366V35.8928H28.1488V33.8226H27.26C24.301 33.8226 23.109 32.641 23.109 29.6715V8.32029H23.4017C28.4416 8.32029 31.1078 11.2793 31.1078 16.0264V16.3192H32.8854V6.25H8ZM26.9672 25.8132H32.8958V19.8847H26.9777V25.8132H26.9672Z" fill="white"/>
<path d="M41.5 28.813V16.1685H49.5684V18.4844H44.2142V21.1893H49.1052V23.394H44.2142V26.4972H49.6796V28.813H41.5Z" fill="white"/>
<path d="M52.0603 28.813V16.1685H56.0713C57.0718 16.1685 57.8344 16.2611 58.3594 16.4464C59.1313 16.7305 59.7304 17.2215 60.1565 17.9193C60.5208 18.5245 60.703 19.2594 60.703 20.124C60.703 21.5752 60.1874 22.6869 59.156 23.4588C58.4397 24.0023 57.4269 24.274 56.1176 24.274H54.7744V28.813H52.0603ZM54.7744 22.0693H56.0898C56.8124 22.0693 57.3126 21.8995 57.5905 21.5598C57.8561 21.2325 57.9888 20.7971 57.9888 20.2537C57.9888 19.6361 57.8005 19.1699 57.4238 18.8549C57.1335 18.6079 56.6456 18.4844 55.9602 18.4844H54.7744V22.0693Z" fill="white"/>
<path d="M69.5773 23.9127H72.2915C72.1927 25.2528 71.816 26.3737 71.1614 27.2753C70.2659 28.5043 69.0061 29.1187 67.3819 29.1187C65.8442 29.1187 64.6245 28.5907 63.7229 27.5347C62.6298 26.244 62.0833 24.5735 62.0833 22.5232C62.0833 21.4548 62.2469 20.4575 62.5742 19.5311C63.0189 18.296 63.726 17.345 64.6955 16.678C65.4798 16.1469 66.3969 15.8813 67.4468 15.8813C69.108 15.8813 70.4018 16.5483 71.3281 17.8822C71.853 18.6418 72.1495 19.4879 72.2174 20.4204L69.531 20.4297C69.4507 19.9356 69.318 19.5342 69.1327 19.2254C68.7375 18.5399 68.1631 18.1972 67.4097 18.1972C66.5698 18.1972 65.9276 18.5955 65.4829 19.3922C65.0259 20.2197 64.7974 21.2541 64.7974 22.4954C64.7974 23.7552 65.0352 24.8051 65.5107 25.645C65.943 26.4169 66.5667 26.8029 67.3819 26.8029C68.018 26.8029 68.5151 26.5682 68.8733 26.0989C69.2315 25.6233 69.4662 24.8946 69.5773 23.9127Z" fill="white"/>
</svg>
